<svg width="40" height="40" viewBox="0 0 40 40" fill="none" xmlns="http://www.w3.org/2000/svg">
<path d="M27.2523 15.4672C27.7405 14.979 27.7405 14.1876 27.2523 13.6994C26.7642 13.2113 25.9727 13.2113 25.4846 13.6994L20.4759 18.7081L15.4672 13.6994C14.9791 13.2113 14.1876 13.2113 13.6995 13.6994C13.2113 14.1876 13.2113 14.979 13.6995 15.4672L18.7081 20.4759L13.6995 25.4845C13.2113 25.9727 13.2113 26.7642 13.6995 27.2523C14.1876 27.7405 14.9791 27.7405 15.4672 27.2523L20.4759 22.2436L25.4846 27.2523C25.9727 27.7405 26.7642 27.7405 27.2524 27.2523C27.7405 26.7642 27.7405 25.9727 27.2524 25.4845L22.2437 20.4759L27.2523 15.4672Z" fill="black"/>
</svg>
