<svg width="24" height="24" viewBox="0 0 24 24" fill="none" xmlns="http://www.w3.org/2000/svg">
<path d="M16.3514 9.28033C16.6443 8.98744 16.6443 8.51256 16.3514 8.21967C16.0585 7.92678 15.5836 7.92678 15.2907 8.21967L12.2855 11.2249L9.28034 8.21967C8.98745 7.92678 8.51257 7.92678 8.21968 8.21967C7.92679 8.51256 7.92679 8.98744 8.21968 9.28033L11.2249 12.2855L8.21967 15.2907C7.92678 15.5836 7.92678 16.0585 8.21967 16.3514C8.51256 16.6443 8.98744 16.6443 9.28033 16.3514L12.2855 13.3462L15.2907 16.3514C15.5836 16.6443 16.0585 16.6443 16.3514 16.3514C16.6443 16.0585 16.6443 15.5836 16.3514 15.2907L13.3462 12.2855L16.3514 9.28033Z" fill="black"/>
</svg>
