<svg width="32" height="32" viewBox="0 0 32 32" fill="none" xmlns="http://www.w3.org/2000/svg">
<path fill-rule="evenodd" clip-rule="evenodd" d="M15.4081 27.0404C15.5985 27.168 15.8021 27.2245 16 27.2218C16.1979 27.2245 16.4015 27.168 16.5919 27.0404L18.2817 25.9079C21.5955 23.687 25.6483 23.3242 29.2365 24.9274C30.5602 25.5188 32 24.4299 32 22.8375V3.45427C32 2.49342 31.4763 1.62936 30.6776 1.27251C26.0561 -0.792415 20.8361 -0.325207 16.5679 2.53538L16 2.91596L15.4321 2.53538C11.1639 -0.325207 5.94392 -0.792415 1.32239 1.27251C0.523713 1.62936 0 2.49342 0 3.45427V22.8375C0 24.4299 1.43984 25.5188 2.76348 24.9274C6.35165 23.3242 10.4045 23.687 13.7183 25.9079L15.4081 27.0404ZM2.23256 3.55207V22.4829C6.39373 20.7406 11.0464 21.2089 14.867 23.7695L14.8837 23.7807V5.07606L14.2835 4.67379C10.6385 2.23088 6.18617 1.81801 2.23256 3.55207ZM17.133 23.7695L17.1163 23.7807V5.07606L17.7165 4.67379C21.3615 2.23088 25.8138 1.81801 29.7674 3.55207V22.4829C25.6063 20.7406 20.9536 21.2089 17.133 23.7695Z" fill="black"/>
<path d="M11.9444 27.7157C8.93217 25.753 5.20736 25.753 2.19511 27.7157L2.04219 27.8154C1.50967 28.1624 1.32979 28.9259 1.64043 29.5207C1.95107 30.1155 2.63459 30.3165 3.16711 29.9695L3.32003 29.8698C5.63715 28.36 8.50239 28.36 10.8195 29.8698L12.4377 30.9243C14.639 32.3586 17.361 32.3586 19.5623 30.9243L21.1805 29.8698C23.4976 28.36 26.3629 28.36 28.68 29.8698L28.8329 29.9695C29.3654 30.3165 30.0489 30.1155 30.3596 29.5207C30.6702 28.9259 30.4903 28.1624 29.9578 27.8154L29.8049 27.7157C26.7926 25.753 23.0678 25.753 20.0556 27.7157L18.4373 28.7702C16.9312 29.7515 15.0688 29.7515 13.5627 28.7702L11.9444 27.7157Z" fill="black"/>
</svg>
