<svg width="23" height="23" viewBox="0 0 23 23" fill="none" xmlns="http://www.w3.org/2000/svg">
<path fill-rule="evenodd" clip-rule="evenodd" d="M13.7857 14.8021C11.2459 16.8364 7.52806 16.6763 5.17364 14.3218C2.64744 11.7956 2.64744 7.69985 5.17364 5.17364C7.69985 2.64744 11.7956 2.64744 14.3218 5.17364C16.6763 7.52806 16.8364 11.2458 14.8022 13.7857L19.743 18.7265C20.0237 19.0072 20.0237 19.4623 19.743 19.743C19.4623 20.0237 19.0072 20.0237 18.7265 19.743L13.7857 14.8021ZM6.19011 13.3054C4.22529 11.3405 4.22529 8.15494 6.19011 6.19011C8.15494 4.22529 11.3405 4.22529 13.3054 6.19011C15.2688 8.15349 15.2702 11.3359 13.3097 13.301C13.3082 13.3025 13.3068 13.3039 13.3054 13.3053C13.3039 13.3068 13.3025 13.3082 13.3011 13.3097C11.3359 15.2702 8.1535 15.2688 6.19011 13.3054Z" fill="black"/>
</svg>
