<svg width="24" height="24" viewBox="0 0 24 24" fill="none" xmlns="http://www.w3.org/2000/svg">
<path d="M13.2197 7.28033C13.5126 7.57322 13.9874 7.57322 14.2803 7.28033L15 6.56066L15 16.75C15 17.1642 15.3358 17.5 15.75 17.5C16.1642 17.5 16.5 17.1642 16.5 16.75L16.5 6.56066L17.2197 7.28033C17.5126 7.57322 17.9874 7.57322 18.2803 7.28033C18.5732 6.98744 18.5732 6.51256 18.2803 6.21967L16.2803 4.21967C15.9874 3.92678 15.5126 3.92678 15.2197 4.21967L13.2197 6.21967C12.9268 6.51256 12.9268 6.98744 13.2197 7.28033Z" fill="black"/>
<path d="M8.5 16.9393L9.21967 16.2197C9.51256 15.9268 9.98744 15.9268 10.2803 16.2197C10.5732 16.5126 10.5732 16.9874 10.2803 17.2803L8.28033 19.2803C7.98744 19.5732 7.51256 19.5732 7.21967 19.2803L5.21967 17.2803C4.92678 16.9874 4.92678 16.5126 5.21967 16.2197C5.51256 15.9268 5.98744 15.9268 6.28033 16.2197L7 16.9393L7 6.75C7 6.33579 7.33579 6 7.75 6C8.16421 6 8.5 6.33579 8.5 6.75L8.5 16.9393Z" fill="black"/>
</svg>
